<svg width="36" height="36" viewBox="0 0 36 36" fill="none" xmlns="http://www.w3.org/2000/svg">
<path fill-rule="evenodd" clip-rule="evenodd" d="M16.0833 16.0833V2.66667C16.0833 1.60812 16.9415 0.75 18 0.75C19.0585 0.75 19.9167 1.60812 19.9167 2.66667V16.0833H33.3333C34.3919 16.0833 35.25 16.9415 35.25 18C35.25 19.0585 34.3919 19.9167 33.3333 19.9167H19.9167V33.3333C19.9167 34.3919 19.0585 35.25 18 35.25C16.9415 35.25 16.0833 34.3919 16.0833 33.3333V19.9167H2.66667C1.60812 19.9167 0.75 19.0585 0.75 18C0.75 16.9415 1.60812 16.0833 2.66667 16.0833H16.0833Z" fill="white"/>
</svg>
